<svg width="35" height="32" viewBox="0 0 35 32" fill="none" xmlns="http://www.w3.org/2000/svg">
<mask id="mask0_301_51" style="mask-type:luminance" maskUnits="userSpaceOnUse" x="0" y="0" width="35" height="32">
<path d="M34.0654 0H0V31.0374H34.0654V0Z" fill="white"/>
</mask>
<g mask="url(#mask0_301_51)">
<mask id="mask1_301_51" style="mask-type:luminance" maskUnits="userSpaceOnUse" x="0" y="0" width="135" height="31">
<path d="M134.878 0H0V30.8204H134.878V0Z" fill="white"/>
</mask>
<g mask="url(#mask1_301_51)">
<path d="M6.50757 14.74C6.50759 14.5686 6.54148 14.3989 6.60726 14.2406C6.67305 14.0824 6.76944 13.9387 6.89091 13.8178C7.01241 13.6969 7.15655 13.6012 7.31512 13.5362C7.47369 13.4712 7.64353 13.4381 7.81492 13.4389L9.98249 13.446C10.3281 13.446 10.6595 13.5833 10.9039 13.8276C11.1483 14.072 11.2856 14.4034 11.2856 14.749V22.9449C11.5296 22.8725 11.843 22.7953 12.1859 22.7145C12.4241 22.6586 12.6364 22.5238 12.7883 22.332C12.9403 22.1402 13.0229 21.9027 13.0229 21.658V11.4914C13.0229 11.1458 13.1602 10.8143 13.4045 10.5699C13.6489 10.3255 13.9803 10.1881 14.326 10.1881H16.4978C16.8434 10.1881 17.1749 10.3255 17.4192 10.5699C17.6636 10.8143 17.8009 11.1458 17.8009 11.4914V20.927C17.8009 20.927 18.3447 20.707 18.8743 20.4834C19.0711 20.4002 19.239 20.2609 19.3571 20.0829C19.4752 19.9049 19.5383 19.696 19.5385 19.4824V8.23371C19.5385 7.88817 19.6757 7.55675 19.92 7.31238C20.1643 7.06802 20.4957 6.93072 20.8413 6.93065H23.0131C23.3587 6.93065 23.6902 7.06792 23.9346 7.31231C24.1789 7.55667 24.3162 7.88811 24.3162 8.23371V17.4967C26.1991 16.1321 28.1073 14.4909 29.6216 12.5174C29.8414 12.2309 29.9867 11.8945 30.0448 11.5383C30.1028 11.182 30.0718 10.8169 29.9544 10.4755C29.2534 8.45875 28.1394 6.61053 26.6831 5.04913C25.2269 3.48775 23.4608 2.24752 21.4977 1.40787C19.5347 0.568212 17.418 0.147602 15.2831 0.172957C13.1482 0.198311 11.0421 0.669071 9.09957 1.55511C7.15703 2.44115 5.42085 3.72295 4.00214 5.3185C2.58343 6.91402 1.51343 8.78817 0.860606 10.821C0.207786 12.8538 -0.0134768 15.0005 0.210976 17.1237C0.435429 19.247 1.10066 21.2999 2.16409 23.1513C2.34934 23.4707 2.62189 23.7306 2.9497 23.9004C3.27751 24.0703 3.64698 24.143 4.01473 24.1102C4.42554 24.0741 4.93702 24.0229 5.54515 23.9515C5.80988 23.9214 6.05429 23.7951 6.23181 23.5964C6.40936 23.3977 6.50759 23.1407 6.50782 22.8743L6.50757 14.74Z" fill="#21325B"/>
<path d="M6.45996 27.8856C8.74923 29.551 11.4547 30.5508 14.2769 30.7741C17.0991 30.9971 19.9281 30.4354 22.4508 29.1505C24.9735 27.8656 27.0915 25.908 28.5707 23.4941C30.0496 21.0802 30.8321 18.3041 30.8313 15.4731C30.8313 15.1198 30.8149 14.7703 30.7915 14.4229C25.1848 22.7848 14.8327 26.694 6.46044 27.8843" fill="#979695"/>
</g>
</g>
</svg>
